<svg width="36" height="36" viewBox="0 0 36 36" fill="none" xmlns="http://www.w3.org/2000/svg">
<g clip-path="url(#clip0_1327_456)">
<path fill-rule="evenodd" clip-rule="evenodd" d="M29.464 18.0047C29.464 24.3335 24.3335 29.464 18.0047 29.464C11.6759 29.464 6.54541 24.3335 6.54541 18.0047C6.54541 11.6759 11.6759 6.54541 18.0047 6.54541C24.3335 6.54541 29.464 11.6759 29.464 18.0047ZM18.4055 14.9991C17.2892 15.4667 15.066 16.4304 11.7265 17.8807C11.1922 18.1001 10.9059 18.31 10.8773 18.5199C10.835 18.8749 11.2793 19.0127 11.8786 19.1987C11.956 19.2227 12.0359 19.2475 12.1177 19.2737C12.7093 19.4645 13.4917 19.684 13.9019 19.6935C14.2741 19.7031 14.6843 19.5504 15.1423 19.2355C18.2624 17.1269 19.8654 16.0582 19.9703 16.0392C20.0467 16.0201 20.1421 16.001 20.2089 16.0582C20.2756 16.1155 20.2756 16.23 20.2661 16.2586C20.2206 16.4483 18.3592 18.1763 17.5122 18.9627C17.294 19.1652 17.1431 19.3053 17.1079 19.3405C17.0184 19.4326 16.9273 19.5198 16.8396 19.6037C16.292 20.1279 15.881 20.5213 16.8598 21.1629C17.3048 21.4567 17.6637 21.7016 18.0171 21.9427C18.4443 22.2341 18.8635 22.5201 19.4169 22.8804C19.5473 22.966 19.6721 23.0548 19.7939 23.1415C20.2692 23.4796 20.6981 23.7847 21.2298 23.7391C21.5351 23.7105 21.85 23.4243 22.0122 22.5655C22.3939 20.5427 23.1381 16.1441 23.3098 14.3312C23.3289 14.1786 23.3098 13.9782 23.2908 13.8828C23.2717 13.7874 23.243 13.6633 23.1286 13.5679C22.9854 13.4534 22.7755 13.4343 22.6801 13.4343C22.2507 13.4439 21.5828 13.6729 18.4055 14.9991Z" fill="#202020"/>
</g>
<circle cx="18" cy="18" r="17.5" stroke="#A7A7A7"/>
<defs>
<clipPath id="clip0_1327_456">
<rect width="22.9091" height="22.9091" fill="white" transform="translate(6.54541 6.54541)"/>
</clipPath>
</defs>
</svg>
