<svg width="36" height="36" viewBox="0 0 36 36" fill="none" xmlns="http://www.w3.org/2000/svg">
<circle cx="18" cy="18" r="17.5" stroke="#A7A7A7"/>
<path fill-rule="evenodd" clip-rule="evenodd" d="M8.61044 8.61044C7 10.2209 7 12.8128 7 17.9968V18.9132C7 24.0972 7 26.6891 8.61044 28.2996C10.2209 29.91 12.8128 29.91 17.9968 29.91H18.9132C24.0972 29.91 26.6891 29.91 28.2996 28.2996C29.91 26.6891 29.91 24.0972 29.91 18.9132V17.9968C29.91 12.8128 29.91 10.2209 28.2996 8.61044C26.6891 7 24.0972 7 18.9132 7H17.9968C12.8128 7 10.2209 7 8.61044 8.61044ZM10.8661 13.9685C10.9902 19.9251 13.9685 23.5048 19.19 23.5048H19.486V20.0969C21.4048 20.2878 22.8556 21.6911 23.4379 23.5048H26.149C25.4044 20.7938 23.4474 19.2951 22.2256 18.7223C23.4474 18.0159 25.1657 16.2977 25.5761 13.9685H23.1133C22.5787 15.8586 20.9943 17.5768 19.486 17.7391V13.9685H17.0231V20.5742C15.4958 20.1924 13.5676 18.3405 13.4817 13.9685H10.8661Z" fill="#202020"/>
</svg>
