<svg width="183" height="177" viewBox="0 0 183 177" fill="none" xmlns="http://www.w3.org/2000/svg">
<path fill-rule="evenodd" clip-rule="evenodd" d="M44.0688 34.5736C43.1144 31.0117 45.2281 27.3506 48.79 26.3962L97.2891 13.4009C100.851 12.4465 104.512 14.5602 105.467 18.1221C106.421 21.684 104.307 25.3452 100.745 26.2996L52.2462 39.2949C48.6843 40.2493 45.0232 38.1355 44.0688 34.5736Z" fill="#8D79F3"/>
<path fill-rule="evenodd" clip-rule="evenodd" d="M77.2486 158.401C76.2942 154.839 78.408 151.178 81.9698 150.224L130.469 137.229C134.031 136.274 137.692 138.388 138.646 141.95C139.601 145.512 137.487 149.173 133.925 150.127L85.426 163.123C81.8641 164.077 78.203 161.963 77.2486 158.401Z" fill="#8D79F3"/>
<path fill-rule="evenodd" clip-rule="evenodd" d="M18.3513 107.823C17.3969 104.261 19.5107 100.6 23.0726 99.6457L156.187 63.9777C159.749 63.0233 163.41 65.1371 164.365 68.699C165.319 72.2609 163.205 75.922 159.643 76.8764L26.5287 112.544C22.9669 113.499 19.3057 111.385 18.3513 107.823Z" fill="#8D79F3"/>
<path fill-rule="evenodd" clip-rule="evenodd" d="M17.7953 74.7909C16.8409 71.229 18.9546 67.5679 22.5165 66.6135L140.153 35.0929C143.715 34.1385 147.376 36.2523 148.33 39.8142C149.285 43.3761 147.171 47.0372 143.609 47.9916L25.9727 79.5122C22.4108 80.4666 18.7497 78.3528 17.7953 74.7909Z" fill="#8D79F3"/>
<path fill-rule="evenodd" clip-rule="evenodd" d="M34.385 136.705C33.4306 133.143 35.5444 129.482 39.1062 128.528L156.742 97.007C160.304 96.0526 163.965 98.1664 164.92 101.728C165.874 105.29 163.761 108.951 160.199 109.906L42.5624 141.426C39.0006 142.381 35.3394 140.267 34.385 136.705Z" fill="#8D79F3"/>
</svg>
