<svg width="123" height="29" viewBox="0 0 123 29" fill="none" xmlns="http://www.w3.org/2000/svg">
<path fill-rule="evenodd" clip-rule="evenodd" d="M7.07704 5.5023C6.92366 4.92987 7.26336 4.34148 7.83579 4.1881L15.6301 2.09962C16.2025 1.94624 16.7909 2.28595 16.9443 2.85838C17.0977 3.43081 16.758 4.01919 16.1855 4.17257L8.39124 6.26105C7.81881 6.41443 7.23042 6.07473 7.07704 5.5023Z" fill="#8D79F3"/>
<path fill-rule="evenodd" clip-rule="evenodd" d="M12.4091 25.4024C12.2557 24.83 12.5954 24.2416 13.1678 24.0882L20.9621 21.9998C21.5346 21.8464 22.1229 22.1861 22.2763 22.7585C22.4297 23.331 22.09 23.9193 21.5176 24.0727L13.7233 26.1612C13.1508 26.3146 12.5625 25.9749 12.4091 25.4024Z" fill="#8D79F3"/>
<path fill-rule="evenodd" clip-rule="evenodd" d="M2.94374 17.2743C2.79036 16.7018 3.13006 16.1135 3.70249 15.9601L25.0954 10.2279C25.6678 10.0745 26.2562 10.4142 26.4096 10.9866C26.5629 11.5591 26.2232 12.1474 25.6508 12.3008L4.25794 18.033C3.68551 18.1864 3.09712 17.8467 2.94374 17.2743Z" fill="#8D79F3"/>
<path fill-rule="evenodd" clip-rule="evenodd" d="M2.85438 11.9659C2.701 11.3935 3.04071 10.8051 3.61314 10.6517L22.5185 5.58605C23.0909 5.43267 23.6793 5.77238 23.8327 6.34481C23.986 6.91724 23.6463 7.50562 23.0739 7.65901L4.16858 12.7247C3.59615 12.8781 3.00777 12.5383 2.85438 11.9659Z" fill="#8D79F3"/>
<path fill-rule="evenodd" clip-rule="evenodd" d="M5.52089 21.9161C5.3675 21.3437 5.70721 20.7553 6.27964 20.6019L25.185 15.5363C25.7574 15.3829 26.3458 15.7226 26.4992 16.295C26.6525 16.8674 26.3128 17.4558 25.7404 17.6092L6.83509 22.6749C6.26266 22.8282 5.67427 22.4885 5.52089 21.9161Z" fill="#8D79F3"/>
<path d="M50.6293 6.45455V21H47.5895V8.95455H41.7088V21H38.669V6.45455H50.6293ZM56.6112 21.206C55.9151 21.206 55.2949 21.0852 54.7504 20.8438C54.2058 20.5975 53.775 20.2353 53.4577 19.7571C53.1452 19.2741 52.989 18.6728 52.989 17.9531C52.989 17.3471 53.1003 16.8381 53.3228 16.4261C53.5453 16.0142 53.8484 15.6828 54.2319 15.4318C54.6154 15.1809 55.051 14.9915 55.5387 14.8636C56.0311 14.7358 56.5472 14.6458 57.087 14.5938C57.7215 14.5275 58.2328 14.4659 58.6211 14.4091C59.0094 14.3475 59.2911 14.2576 59.4663 14.1392C59.6415 14.0208 59.729 13.8456 59.729 13.6136V13.571C59.729 13.1212 59.587 12.7732 59.3029 12.527C59.0236 12.2808 58.6258 12.1577 58.1097 12.1577C57.5652 12.1577 57.132 12.2784 56.81 12.5199C56.488 12.7566 56.275 13.0549 56.1708 13.4148L53.3725 13.1875C53.5146 12.5246 53.7939 11.9517 54.2106 11.4688C54.6272 10.9811 55.1647 10.607 55.8228 10.3466C56.4857 10.0814 57.2527 9.94886 58.1239 9.94886C58.73 9.94886 59.31 10.0199 59.864 10.1619C60.4227 10.304 60.9175 10.5241 61.3484 10.8224C61.784 11.1207 62.1272 11.5043 62.3782 11.973C62.6291 12.437 62.7546 12.9934 62.7546 13.642V21H59.8853V19.4872H59.8001C59.6249 19.8281 59.3905 20.1288 59.0969 20.3892C58.8034 20.6449 58.4506 20.8461 58.0387 20.9929C57.6268 21.1349 57.1509 21.206 56.6112 21.206ZM57.4776 19.1179C57.9227 19.1179 58.3157 19.0303 58.6566 18.8551C58.9975 18.6752 59.265 18.4337 59.4592 18.1307C59.6533 17.8277 59.7504 17.4844 59.7504 17.1009V15.9432C59.6557 16.0047 59.5255 16.0616 59.3597 16.1136C59.1987 16.161 59.0165 16.206 58.8129 16.2486C58.6093 16.2865 58.4057 16.322 58.2021 16.3551C57.9985 16.3835 57.8138 16.4096 57.6481 16.4332C57.293 16.4853 56.9828 16.5682 56.7177 16.6818C56.4525 16.7955 56.2466 16.9493 56.0998 17.1435C55.953 17.3329 55.8796 17.5696 55.8796 17.8537C55.8796 18.2656 56.0288 18.5805 56.3271 18.7983C56.6301 19.0114 57.0136 19.1179 57.4776 19.1179ZM66.5792 25.0909C66.1957 25.0909 65.8358 25.0601 65.4996 24.9986C65.1682 24.9418 64.8936 24.8684 64.6758 24.7784L65.3576 22.5199C65.7127 22.6288 66.0323 22.688 66.3164 22.6974C66.6052 22.7069 66.8538 22.6406 67.0621 22.4986C67.2752 22.3565 67.448 22.1151 67.5806 21.7741L67.7582 21.3125L63.8448 10.0909H67.0266L69.2852 18.1023H69.3988L71.6786 10.0909H74.8817L70.6417 22.179C70.4381 22.7661 70.1611 23.2775 69.8107 23.7131C69.4651 24.1534 69.0271 24.492 68.4968 24.7287C67.9665 24.9702 67.3273 25.0909 66.5792 25.0909ZM75.8619 12.4702V10.0909H85.7482V12.4702H82.2326V21H79.3491V12.4702H75.8619ZM90.473 17.0085L94.4006 10.0909H97.3835V21H94.5V14.0611L90.5866 21H87.5824V10.0909H90.473V17.0085ZM107.401 14.3381V16.7173H101.705V14.3381H107.401ZM102.7 10.0909V21H99.8089V10.0909H102.7ZM109.298 10.0909V21H106.428V10.0909H109.298ZM114.756 21.206C114.06 21.206 113.439 21.0852 112.895 20.8438C112.35 20.5975 111.92 20.2353 111.602 19.7571C111.29 19.2741 111.134 18.6728 111.134 17.9531C111.134 17.3471 111.245 16.8381 111.467 16.4261C111.69 16.0142 111.993 15.6828 112.376 15.4318C112.76 15.1809 113.196 14.9915 113.683 14.8636C114.176 14.7358 114.692 14.6458 115.232 14.5938C115.866 14.5275 116.377 14.4659 116.766 14.4091C117.154 14.3475 117.436 14.2576 117.611 14.1392C117.786 14.0208 117.874 13.8456 117.874 13.6136V13.571C117.874 13.1212 117.732 12.7732 117.447 12.527C117.168 12.2808 116.77 12.1577 116.254 12.1577C115.71 12.1577 115.277 12.2784 114.955 12.5199C114.633 12.7566 114.42 13.0549 114.315 13.4148L111.517 13.1875C111.659 12.5246 111.938 11.9517 112.355 11.4688C112.772 10.9811 113.309 10.607 113.967 10.3466C114.63 10.0814 115.397 9.94886 116.268 9.94886C116.875 9.94886 117.455 10.0199 118.009 10.1619C118.567 10.304 119.062 10.5241 119.493 10.8224C119.929 11.1207 120.272 11.5043 120.523 11.973C120.774 12.437 120.899 12.9934 120.899 13.642V21H118.03V19.4872H117.945C117.769 19.8281 117.535 20.1288 117.241 20.3892C116.948 20.6449 116.595 20.8461 116.183 20.9929C115.771 21.1349 115.295 21.206 114.756 21.206ZM115.622 19.1179C116.067 19.1179 116.46 19.0303 116.801 18.8551C117.142 18.6752 117.41 18.4337 117.604 18.1307C117.798 17.8277 117.895 17.4844 117.895 17.1009V15.9432C117.8 16.0047 117.67 16.0616 117.504 16.1136C117.343 16.161 117.161 16.206 116.957 16.2486C116.754 16.2865 116.55 16.322 116.347 16.3551C116.143 16.3835 115.958 16.4096 115.793 16.4332C115.438 16.4853 115.127 16.5682 114.862 16.6818C114.597 16.7955 114.391 16.9493 114.244 17.1435C114.098 17.3329 114.024 17.5696 114.024 17.8537C114.024 18.2656 114.173 18.5805 114.472 18.7983C114.775 19.0114 115.158 19.1179 115.622 19.1179Z" fill="#202020"/>
</svg>
