<svg width="82" height="78" viewBox="0 0 82 78" fill="none" xmlns="http://www.w3.org/2000/svg">
<path fill-rule="evenodd" clip-rule="evenodd" d="M19.5324 15.1859C19.109 13.606 20.0466 11.982 21.6265 11.5587L43.1387 5.7945C44.7187 5.37117 46.3426 6.30876 46.7659 7.88866C47.1893 9.46856 46.2517 11.0925 44.6718 11.5158L23.1596 17.28C21.5797 17.7033 19.9557 16.7658 19.5324 15.1859Z" fill="#8D79F3"/>
<path fill-rule="evenodd" clip-rule="evenodd" d="M34.2497 70.1107C33.8263 68.5308 34.7639 66.9068 36.3438 66.4835L57.856 60.7193C59.4359 60.296 61.0599 61.2336 61.4832 62.8135C61.9065 64.3934 60.969 66.0173 59.3891 66.4406L37.8768 72.2048C36.2969 72.6282 34.673 71.6906 34.2497 70.1107Z" fill="#8D79F3"/>
<path fill-rule="evenodd" clip-rule="evenodd" d="M8.12516 47.6768C7.70182 46.0969 8.63941 44.473 10.2193 44.0496L69.2635 28.2288C70.8434 27.8055 72.4673 28.7431 72.8907 30.323C73.314 31.9029 72.3764 33.5268 70.7965 33.9501L11.7523 49.771C10.1724 50.1943 8.54849 49.2567 8.12516 47.6768Z" fill="#8D79F3"/>
<path fill-rule="evenodd" clip-rule="evenodd" d="M7.87857 33.0255C7.45524 31.4456 8.39282 29.8216 9.97273 29.3983L62.1513 15.4171C63.7312 14.9937 65.3551 15.9313 65.7785 17.5112C66.2018 19.0911 65.2642 20.7151 63.6843 21.1384L11.5058 35.1196C9.92585 35.5429 8.30191 34.6054 7.87857 33.0255Z" fill="#8D79F3"/>
<path fill-rule="evenodd" clip-rule="evenodd" d="M15.2372 60.4884C14.8139 58.9084 15.7515 57.2845 17.3314 56.8612L69.5099 42.88C71.0898 42.4566 72.7138 43.3942 73.1371 44.9741C73.5605 46.554 72.6229 48.178 71.043 48.6013L18.8644 62.5825C17.2845 63.0058 15.6606 62.0683 15.2372 60.4884Z" fill="#8D79F3"/>
</svg>
